<svg width="3450" height="2947" viewBox="0 0 3450 2947" fill="none" xmlns="http://www.w3.org/2000/svg">
<g clip-path="url(#clip0_934_36)">
<path d="M3129.38 949.15L3007.19 913.218L3179.69 345.498L3057.5 309.566C3014.38 295.194 2985.63 244.889 3000 201.771C3014.38 151.467 3057.5 129.908 3107.82 144.281L3388.13 230.517C3438.44 244.889 3460 295.194 3445.63 338.312C3431.25 381.43 3380.94 410.175 3337.82 395.802L3301.88 381.43L3129.38 949.15Z" fill="#111111"/>
<path d="M1641.58 395.824L1454.71 460.501L1397.21 266.47C1339.71 280.843 1282.21 252.097 1260.64 201.793C1239.08 144.302 1267.83 86.8117 1325.33 65.2531L1490.64 7.76241C1548.14 -13.7966 1605.64 14.9488 1627.21 72.4394C1648.77 129.93 1620.02 187.42 1562.52 208.979L1641.58 395.824Z" fill="#111111"/>
<path d="M1483.43 561.096L1677.49 496.419L1720.62 604.214L1512.18 676.077L1483.43 561.096Z" fill="#111111"/>
<path d="M937.2 1646.22L1310.95 2019.91C1368.45 1983.97 1418.76 1948.04 1461.89 1919.3C1246.26 1445 1253.45 1466.56 1246.26 1452.19C1260.64 1445 1505.01 1330.02 1497.83 1337.2C1505.01 1351.58 1497.83 1330.02 1706.26 1782.76C1742.2 1761.2 1778.14 1746.83 1821.26 1732.45L1540.95 776.671L1756.58 697.622L2130.33 1617.47C2151.89 1610.28 2173.45 1603.1 2195.01 1603.1C2202.2 1603.1 2209.39 1603.1 2209.39 1603.1L2245.33 855.72H2425.01L2468.14 1588.73C2547.2 1603.1 2619.08 1624.66 2683.76 1660.59L2892.2 977.888V970.701L3179.7 1056.94V1064.12L2935.32 1861.81C3244.38 2264.24 3021.57 2889.45 2540.01 2889.45H1404.39C1231.89 2889.45 1066.58 2803.22 973.138 2652.3C965.95 2645.12 965.95 2637.93 965.95 2637.93C850.95 2494.2 973.138 2321.73 1131.26 2170.82L779.075 1818.69L937.2 1646.22Z" fill="#111111"/>
<path d="M24.379 1028.24L146.567 906.068C175.317 877.322 225.629 877.322 254.379 906.068C283.129 934.813 283.129 985.117 254.379 1013.86L240.004 1028.24C275.942 1064.17 376.567 1186.33 570.629 1294.13C577.817 1294.13 585.004 1301.32 585.004 1308.5L872.504 1595.96L707.191 1761.24L419.691 1473.79C412.504 1466.6 412.504 1466.6 405.316 1459.42C297.504 1272.57 182.504 1171.96 139.379 1128.84L125.004 1143.22C96.2542 1171.96 45.9417 1171.96 17.1917 1143.22C-4.37085 1107.29 -4.37097 1056.98 24.379 1028.24Z" fill="#111111"/>
<path d="M1418.76 1286.9C1411.57 1286.9 1397.19 1286.9 1390.01 1286.9L1289.38 1330.02C1246.26 1373.14 1325.32 1416.25 1009.07 783.857C1001.88 769.484 1009.07 747.926 1030.63 740.739L1037.82 733.553L922.818 474.842L850.943 503.587C815.006 517.96 779.068 503.587 764.693 474.842L750.319 453.283C735.944 417.351 750.318 381.42 779.068 367.047L980.318 273.625C1016.26 259.252 1052.19 273.625 1066.57 302.37L1080.94 331.115C1095.32 367.047 1080.94 402.979 1052.19 417.351L987.506 446.097L1102.51 704.805L1109.69 697.618C1131.26 690.432 1152.82 697.618 1160.01 711.991C1167.19 740.739 1433.13 1315.65 1418.76 1286.9Z" fill="#111111"/>
<path d="M2274.07 352.707C2274.07 316.775 2302.82 295.216 2338.76 295.216C2374.69 295.216 2403.44 323.961 2403.44 352.707L2417.82 618.601H2259.69L2274.07 352.707Z" fill="#111111"/>
<path d="M2259.7 690.464H2425.01V776.7H2252.51L2259.7 690.464Z" fill="#111111"/>
</g>
<defs>
<clipPath id="clip0_934_36">
<rect width="3450" height="2946.4" fill="white" transform="matrix(-1 0 0 1 3450 0.604492)"/>
</clipPath>
</defs>
</svg>
